<svg width="447" height="338" viewBox="0 0 447 338" fill="none" xmlns="http://www.w3.org/2000/svg">
<g filter="url(#filter0_d_1_29)">
<path d="M402.961 279.273H263.325V79.7922C263.325 68.8207 272.301 59.8441 283.273 59.8441H363.065C369.049 59.8441 375.034 62.8363 379.023 67.8233L438.868 144.623C441.86 148.613 442.857 152.603 442.857 156.592V239.376C442.857 261.319 424.904 279.273 402.961 279.273Z" fill="#FFC107"/>
<path d="M43.8961 279.273H263.325V39.8961C263.325 17.9532 245.371 0 223.429 0H53.8701C25.9429 0 4 21.9429 4 49.8701V239.377C4 261.32 21.9532 279.273 43.8961 279.273Z" fill="#9575CD"/>
<path d="M353.095 329.147C380.637 329.147 402.965 306.819 402.965 279.276C402.965 251.734 380.637 229.406 353.095 229.406C325.552 229.406 303.224 251.734 303.224 279.276C303.224 306.819 325.552 329.147 353.095 329.147Z" fill="#37474F"/>
<path d="M123.69 329.147C151.233 329.147 173.56 306.819 173.56 279.277C173.56 251.734 151.233 229.406 123.69 229.406C96.147 229.406 73.8192 251.734 73.8192 279.277C73.8192 306.819 96.147 329.147 123.69 329.147Z" fill="#37474F"/>
<path d="M353.095 304.212C366.866 304.212 378.03 293.048 378.03 279.276C378.03 265.505 366.866 254.341 353.095 254.341C339.323 254.341 328.159 265.505 328.159 279.276C328.159 293.048 339.323 304.212 353.095 304.212Z" fill="#78909C"/>
<path d="M123.69 304.212C137.461 304.212 148.625 293.048 148.625 279.276C148.625 265.505 137.461 254.341 123.69 254.341C109.918 254.341 98.7544 265.505 98.7544 279.276C98.7544 293.048 109.918 304.212 123.69 304.212Z" fill="#78909C"/>
<path d="M402.961 179.532H367.055C364.062 179.532 362.068 178.535 360.073 176.54L346.109 162.577C344.114 160.582 342.12 159.584 339.127 159.584H303.221C297.236 159.584 293.247 155.595 293.247 149.61V89.7663C293.247 83.7819 297.236 79.7922 303.221 79.7922H358.078C361.07 79.7922 364.062 80.7897 366.057 83.7819L410.94 137.642C411.938 139.636 412.935 141.631 412.935 143.626V169.558C412.935 175.543 408.946 179.532 402.961 179.532Z" fill="#455A64"/>
<path d="M133.662 29.9221C83.7922 29.9221 43.8961 69.8182 43.8961 119.688C43.8961 169.558 83.7922 209.455 133.662 209.455C183.532 209.455 223.429 169.558 223.429 119.688C223.429 69.8182 183.532 29.9221 133.662 29.9221ZM133.662 129.662C127.678 129.662 123.688 125.673 123.688 119.688C123.688 113.704 127.678 109.714 133.662 109.714C139.647 109.714 143.636 113.704 143.636 119.688C143.636 125.673 139.647 129.662 133.662 129.662Z" fill="white"/>
<path d="M152.613 124.675C152.613 122.68 153.61 121.683 153.61 119.688C153.61 112.706 149.621 105.725 143.636 102.732V49.8701H123.688V102.732C117.704 105.725 113.714 112.706 113.714 119.688C113.714 130.66 122.691 139.636 133.662 139.636C135.657 139.636 136.655 139.636 138.649 138.639L161.59 161.579L175.553 147.616L152.613 124.675ZM133.662 129.662C127.678 129.662 123.688 125.673 123.688 119.688C123.688 113.704 127.678 109.714 133.662 109.714C139.647 109.714 143.636 113.704 143.636 119.688C143.636 125.673 139.647 129.662 133.662 129.662Z" fill="#37474F"/>
</g>
<defs>
<filter id="filter0_d_1_29" x="0" y="0" width="446.857" height="337.147" filterUnits="userSpaceOnUse" color-interpolation-filters="sRGB">
<feFlood flood-opacity="0" result="BackgroundImageFix"/>
<feColorMatrix in="SourceAlpha" type="matrix" values="0 0 0 0 0 0 0 0 0 0 0 0 0 0 0 0 0 0 127 0" result="hardAlpha"/>
<feOffset dy="4"/>
<feGaussianBlur stdDeviation="2"/>
<feComposite in2="hardAlpha" operator="out"/>
<feColorMatrix type="matrix" values="0 0 0 0 0 0 0 0 0 0 0 0 0 0 0 0 0 0 0.25 0"/>
<feBlend mode="normal" in2="BackgroundImageFix" result="effect1_dropShadow_1_29"/>
<feBlend mode="normal" in="SourceGraphic" in2="effect1_dropShadow_1_29" result="shape"/>
</filter>
</defs>
</svg>
