<svg width="88" height="88" viewBox="0 0 88 88" fill="none" xmlns="http://www.w3.org/2000/svg">
<path d="M74.9356 13.0645C70.8803 8.96907 66.0559 5.7153 60.7393 3.49008C55.4227 1.26486 49.7189 0.112037 43.9555 0.0978517C38.192 0.0836665 32.4826 1.20839 27.1551 3.40742C21.8277 5.60644 16.9872 8.83642 12.9119 12.9118C8.83648 16.9872 5.6065 21.8276 3.40748 27.1551C1.20845 32.4825 0.0837256 38.192 0.0979108 43.9554C0.112096 49.7188 1.26491 55.4227 3.49014 60.7392C5.71536 66.0558 8.96912 70.8803 13.0645 74.9356C17.1198 79.0309 21.9443 82.2847 27.2608 84.5099C32.5774 86.7352 38.2812 87.888 44.0447 87.9022C49.8081 87.9163 55.5175 86.7916 60.845 84.5926C66.1724 82.3936 71.0129 79.1636 75.0883 75.0882C79.1637 71.0128 82.3936 66.1724 84.5927 60.8449C86.7917 55.5175 87.9164 49.808 87.9022 44.0446C87.888 38.2812 86.7352 32.5773 84.51 27.2608C82.2848 21.9442 79.031 17.1197 74.9356 13.0645ZM29.9376 34.625C30.8647 34.625 31.7709 34.8999 32.5418 35.415C33.3127 35.9301 33.9135 36.6621 34.2682 37.5187C34.623 38.3752 34.7159 39.3177 34.535 40.227C34.3541 41.1363 33.9077 41.9715 33.2521 42.6271C32.5966 43.2826 31.7613 43.7291 30.852 43.9099C29.9428 44.0908 29.0003 43.998 28.1437 43.6432C27.2872 43.2884 26.5551 42.6876 26.04 41.9167C25.525 41.1459 25.2501 40.2396 25.2501 39.3125C25.2485 38.6965 25.3687 38.0863 25.6037 37.5168C25.8387 36.9474 26.184 36.4301 26.6196 35.9945C27.0551 35.5589 27.5725 35.2137 28.1419 34.9787C28.7113 34.7436 29.3216 34.6235 29.9376 34.625ZM25.3145 63.8887C27.6583 56.0176 35.1192 50.25 43.9903 50.25C52.8614 50.25 60.3223 56.0176 62.6837 63.8887C62.7497 64.1229 62.7601 64.3693 62.7141 64.6083C62.668 64.8473 62.5668 65.0722 62.4184 65.2651C62.2701 65.458 62.0787 65.6137 61.8596 65.7195C61.6405 65.8254 61.3997 65.8787 61.1563 65.875H26.8419C26.5985 65.8787 26.3577 65.8254 26.1386 65.7195C25.9194 65.6137 25.7281 65.458 25.5797 65.2651C25.4314 65.0722 25.3302 64.8473 25.2841 64.6083C25.2381 64.3693 25.2485 64.1229 25.3145 63.8887ZM58.0626 44C57.1355 44 56.2292 43.7251 55.4583 43.21C54.6875 42.6949 54.0867 41.9629 53.7319 41.1063C53.3771 40.2498 53.2843 39.3073 53.4651 38.398C53.646 37.4887 54.0924 36.6535 54.748 35.9979C55.4036 35.3424 56.2388 34.8959 57.1481 34.7151C58.0574 34.5342 58.9999 34.627 59.8564 34.9818C60.7129 35.3366 61.445 35.9374 61.9601 36.7083C62.4751 37.4791 62.7501 38.3854 62.7501 39.3125C62.7516 39.9285 62.6314 40.5387 62.3964 41.1082C62.1614 41.6776 61.8162 42.1949 61.3806 42.6305C60.945 43.0661 60.4276 43.4113 59.8582 43.6463C59.2888 43.8814 58.6786 44.0016 58.0626 44Z" fill="#FFC107"/>
</svg>
