<svg width="49" height="49" viewBox="0 0 49 49" fill="none" xmlns="http://www.w3.org/2000/svg">
<path d="M48.3301 42.3678L38.7885 32.8262C38.3578 32.3955 37.774 32.1562 37.1615 32.1562H35.6016C38.243 28.7779 39.8125 24.5287 39.8125 19.9062C39.8125 8.90996 30.9025 0 19.9062 0C8.90996 0 0 8.90996 0 19.9062C0 30.9025 8.90996 39.8125 19.9062 39.8125C24.5287 39.8125 28.7779 38.243 32.1562 35.6016V37.1615C32.1562 37.774 32.3955 38.3578 32.8262 38.7885L42.3678 48.3301C43.2674 49.2297 44.7221 49.2297 45.6121 48.3301L48.3205 45.6217C49.2201 44.7221 49.2201 43.2674 48.3301 42.3678ZM19.9062 32.1562C13.14 32.1562 7.65625 26.682 7.65625 19.9062C7.65625 13.14 13.1305 7.65625 19.9062 7.65625C26.6725 7.65625 32.1562 13.1305 32.1562 19.9062C32.1562 26.6725 26.682 32.1562 19.9062 32.1562Z" fill="white"/>
</svg>
